<svg version="1.1" xmlns="http://www.w3.org/2000/svg" xmlns:xlink="http://www.w3.org/1999/xlink" width="175.5711" height="201.30025" viewBox="0,0,175.5711,201.30025"><g transform="translate(-152.21446,-79.34987)"><g data-paper-data="{&quot;isPaintingLayer&quot;:true}" fill-rule="evenodd" stroke-linecap="butt" stroke-linejoin="miter" stroke-dasharray="" stroke-dashoffset="0" style="mix-blend-mode: normal"><path d="M167.59308,239.64011c-7.31961,0 -13.29711,-5.35808 -13.35096,-11.96758l-0.77769,-95.34502c-0.0539,-6.60949 5.83612,-11.96758 13.15571,-11.96758h53.0134c7.31961,0 13.29711,5.35808 13.35096,11.96758l0.77769,95.34502c0.0539,6.60949 -5.83612,11.96758 -13.15577,11.96758z" fill="#ffffff" stroke="#000000" stroke-width="2.5" stroke-miterlimit="4"/><path d="M180.73823,226.38678c-7.31955,0 -13.29701,-5.35808 -13.35091,-11.96753l-0.56151,-68.83834c-0.0539,-6.60949 5.83612,-11.96748 13.15567,-11.96748h26.50681c7.31955,0 13.29696,5.35803 13.35091,11.96748l0.56151,68.83834c0.0539,6.60949 -5.83612,11.96753 -13.15567,11.96753z" fill="#ff5555" stroke="#000000" stroke-width="0" stroke-miterlimit="10"/><path d="M208.92208,199.88005c-7.31961,0 -13.29706,-5.35808 -13.35091,-11.96758l-0.77775,-95.34502c-0.0539,-6.60949 5.83612,-11.96758 13.15577,-11.96758h53.01335c7.31961,0 13.29711,5.35808 13.35096,11.96758l0.77769,95.34502c0.0539,6.60949 -5.83612,11.96758 -13.15571,11.96758z" fill="#ffffff" stroke="#000000" stroke-width="2.5" stroke-miterlimit="4"/><path d="M222.06723,186.62671c-7.31955,0 -13.29696,-5.35803 -13.35091,-11.96753l-0.56147,-68.83834c-0.0539,-6.60949 5.83612,-11.96753 13.15567,-11.96753h26.50681c7.31955,0 13.29701,5.35803 13.35091,11.96753l0.56147,68.83834c0.0539,6.60949 -5.83612,11.96753 -13.15567,11.96753z" fill="#5555ff" stroke="none" stroke-width="0.5" stroke-miterlimit="10"/><path d="M219.03753,279.40013c-7.31961,0 -13.29711,-5.35808 -13.35096,-11.96758l-0.77769,-95.34502c-0.0539,-6.60949 5.83612,-11.96758 13.15577,-11.96758h53.01335c7.31961,0 13.29706,5.35803 13.35096,11.96758l0.77769,95.34502c0.0539,6.60949 -5.83612,11.96758 -13.15571,11.96758z" fill="#ffffff" stroke="#000000" stroke-width="2.5" stroke-miterlimit="4"/><path d="M232.18268,266.14683c-7.31955,0 -13.29696,-5.35803 -13.35087,-11.96753l-0.56157,-68.8384c-0.0539,-6.60949 5.83612,-11.96748 13.15567,-11.96748h26.50681c7.31955,0 13.29696,5.35803 13.35087,11.96748l0.56157,68.8384c0.0539,6.60949 -5.83612,11.96753 -13.15567,11.96753z" fill="#ffaa00" stroke="#000000" stroke-width="0" stroke-miterlimit="10"/><path d="M260.36643,239.64011c-7.31961,0 -13.29701,-5.35803 -13.35091,-11.96758l-0.77775,-95.34502c-0.0539,-6.60949 5.83612,-11.96758 13.15577,-11.96758h53.0134c7.31961,0 13.29711,5.35808 13.35096,11.96758l0.77769,95.34502c0.0539,6.60949 -5.83612,11.96758 -13.15577,11.96758z" fill="#ffffff" stroke="#000000" stroke-width="2.5" stroke-miterlimit="4"/><path d="M273.51164,226.38682c-7.31955,0 -13.29696,-5.35803 -13.35087,-11.96753l-0.56151,-68.83834c-0.0539,-6.60949 5.83612,-11.96753 13.15567,-11.96753h26.50681c7.31955,0 13.29706,5.35808 13.35091,11.96753l0.56147,68.83834c0.0539,6.60949 -5.83612,11.96753 -13.15567,11.96753z" fill="#55aa55" stroke="none" stroke-width="0.5" stroke-miterlimit="10"/></g></g></svg>