<svg version="1.1" xmlns="http://www.w3.org/2000/svg" xmlns:xlink="http://www.w3.org/1999/xlink" width="156.59128" height="203.80025" viewBox="0,0,156.59128,203.80025"><g transform="translate(-161.70436,-78.09988)"><g data-paper-data="{&quot;isPaintingLayer&quot;:true}" fill="#ffffff" fill-rule="evenodd" stroke="#000000" stroke-width="5" stroke-linecap="butt" stroke-linejoin="miter" stroke-miterlimit="4" stroke-dasharray="" stroke-dashoffset="0" style="mix-blend-mode: normal"><path d="M180.75992,279.40013c-9.14948,0 -16.56167,-6.69758 -16.55556,-14.95943l0.08791,-119.18089c0.00611,-8.26185 7.42815,-14.95943 16.57763,-14.95943h66.26657c9.14948,0 16.56174,6.69758 16.55562,14.95943l-0.08791,119.18089c-0.00611,8.26185 -7.42821,14.95943 -16.57769,14.95943z"/><path d="M232.86359,229.6997c-9.14948,0 -16.56167,-6.69758 -16.55562,-14.95943l0.08785,-119.18095c0.00611,-8.26185 7.42815,-14.95943 16.57769,-14.95943h66.26657c9.14948,0 16.56167,6.69758 16.55556,14.95943l-0.08785,119.18095c-0.00611,8.26185 -7.42815,14.95943 -16.57769,14.95943z"/></g></g></svg>