<svg
	version="1.1"
	xmlns="http://www.w3.org/2000/svg"
	xmlns:xlink="http://www.w3.org/1999/xlink"
	width="201.79553"
	height="201.8013"
	viewBox="0,0,201.79553,201.8013"
>
	<g transform="translate(-140.10224,-80.09883)">
		<g
			data-paper-data='{"isPaintingLayer":true}'
			fill="#ffffff"
			fill-rule="evenodd"
			stroke="#000000"
			stroke-width="5"
			stroke-linecap="butt"
			stroke-linejoin="miter"
			stroke-miterlimit="10"
			stroke-dasharray=""
			stroke-dashoffset="0"
			style="mix-blend-mode: normal"
		>
			<path
				d="M241.20456,82.60412c25.17768,0.03294 50.29592,9.66504 69.48083,28.90185c38.3695,38.47316 38.26474,100.8062 -0.20468,139.17904c-38.46958,38.37308 -100.79676,38.26847 -139.1661,-0.20468c-38.36935,-38.47332 -38.2649,-100.80628 0.20468,-139.17912c19.23483,-19.18642 44.50807,-28.73598 69.68543,-28.69677zM194.67948,134.46363c-21.63899,21.58478 -25.07276,54.56271 -10.24774,79.73587l89.77131,-89.77996c-10.19726,-6.0011 -21.72629,-9.00582 -33.20309,-9.01876c-16.78488,-0.02198 -33.49707,6.27166 -46.32039,19.06277zM207.59186,237.36176c25.14165,14.94391 58.0672,11.768 79.72841,-9.83885c21.68224,-21.6278 25.17514,-54.74851 10.2479,-79.94095z"
			/>
		</g>
	</g>
</svg>
