<svg
	version="1.1"
	xmlns="http://www.w3.org/2000/svg"
	xmlns:xlink="http://www.w3.org/1999/xlink"
	width="201.79602"
	height="201.79602"
	viewBox="0,0,201.79602,201.79602"
>
	<g transform="translate(-139.10201,-79.10201)">
		<g
			data-paper-data='{"isPaintingLayer":true}'
			fill-rule="nonzero"
			stroke="#000000"
			stroke-linecap="butt"
			stroke-linejoin="miter"
			stroke-miterlimit="10"
			stroke-dasharray=""
			stroke-dashoffset="0"
			style="mix-blend-mode: normal"
		>
			<path
				d="M240.00002,81.60201c54.34371,0 98.39801,44.05429 98.39801,98.39801c0,54.34372 -44.05429,98.39801 -98.39801,98.39801c-54.34371,0 -98.39801,-44.05429 -98.39801,-98.39801c0,-54.34371 44.05429,-98.398 98.39801,-98.398z"
				fill="none"
				stroke-width="5"
			/>
			<path
				d="M338.39802,179.90027c0,54.34372 -44.05429,98.39801 -98.39801,98.39801c-0.00806,0 -0.10584,-98.4714 -0.10584,-98.4714z"
				fill="#55aa55"
				stroke-width="0"
			/>
			<path
				d="M240.00002,81.60201c54.34371,0 98.39801,44.05429 98.39801,98.39801c0,0.00806 -98.4714,0.10584 -98.4714,0.10584z"
				fill="#5555ff"
				stroke-width="0"
			/>
			<path
				d="M141.60199,180.00001c0,-54.34371 44.05429,-98.398 98.39801,-98.398c0.00806,0 0.10584,98.4714 0.10584,98.4714z"
				fill="#ff5555"
				stroke-width="0"
			/>
			<path
				d="M240.00002,278.39802c-54.34371,0 -98.39801,-44.05429 -98.39801,-98.39801c0,-0.00806 98.4714,-0.10584 98.4714,-0.10584z"
				fill="#ffaa00"
				stroke-width="0"
			/>
		</g>
	</g>
</svg>
